# xmcd
# 
# Track frame offsets:
#     150
#     26040
#     50415
#     71903
#     95908
#     122153
#     148050
#     165592
#     194059
#     217983
#     240811
# 
# Disc length: 3651
# 
# Revision: 0
# Processed by: cddbd v1.5.2PL0 Copyright (c) Steve Scherf et al.
# Submitted via: fre:ac v1.0.31
# 
DISCID=a50e410b
DTITLE=Joaquín Sabina - Nos Sobran Los Motivos [CD1: Acústico)
DYEAR=2000
DGENRE=Trova
TTITLE0=Nos Sobran Los Motivos
TTITLE1=Tan Jóven Y Tan Viejo
TTITLE2=Una Canción Para La Magdalena
TTITLE3=Ruido
TTITLE4=De Purísima Y Oro
TTITLE5=Calle Melancolía
TTITLE6=Rosa De Lima
TTITLE7=Que Se Llama Soledad
TTITLE8=19 Días Y 500 Noches
TTITLE9=Contigo
TTITLE10=Noches De Boda/Y Nos Dieron Las Diez
EXTD=
EXTT0=
EXTT1=
EXTT2=
EXTT3=
EXTT4=
EXTT5=
EXTT6=
EXTT7=
EXTT8=
EXTT9=
EXTT10=
PLAYORDER=
